<svg version="1.1" id="LOGO_x5F_ESCP" xmlns="http://www.w3.org/2000/svg" xmlns:xlink="http://www.w3.org/1999/xlink"
	 x="0px" y="0px" width="4000px" height="4000px" viewBox="0 0 391.1 161.4" style="enable-background:new 0 0 391.1 161.4;"
	 xml:space="preserve">
<style type="text/css">
	.logoh{fill:none;}
	.pathh{fill:#FFFFFF;}
</style>
<rect y="0.1" class="logoh" width="391.1" height="161.3"/>
<g>
	<g>
		<path class="pathh" d="M611.29 525.53L483.76 398l4.91-8.68a260.62 260.62 0 0 0 33.81-128C522.48 117.2 405.28 0 261.24 0S0 117.2 0 261.26s117.19 261.22 261.24 261.22A259.58 259.58 0 0 0 406.83 478l9-6 124.48 124.52c18.92 18.95 52 19 71 0a50.17 50.17 0 0 0 0-71zm-350.05-61.24c-112 0-203-91.08-203-203s91.09-203.07 203-203.07 203.05 91.1 203.05 203.07-91.09 203-203.05 203z"/>
	</g>

</g>
</svg>
